<svg xmlns="http://www.w3.org/2000/svg" viewBox="0 0 64 64" fill="none">
  <rect width="64" height="64" rx="18" fill="#050609"/>
  <rect x="1" y="1" width="62" height="62" rx="17" stroke="#F7F9FC" stroke-opacity=".14" stroke-width="2"/>
  <path d="M32 12v-3" stroke="#3478F6" stroke-width="3.2" stroke-linecap="round"/>
  <circle cx="32" cy="6.8" r="3.1" fill="#3478F6"/>
  <path d="M17.6 12h28.8c7.6 0 12 4.5 12 12v14.5c0 7.5-4.4 12-12 12H33L20.9 60v-9.9C11.6 49.6 5.6 45 5.6 37.2V24c0-7.5 4.4-12 12-12Z" fill="#090C12" stroke="#F7F9FC" stroke-opacity=".76" stroke-width="2.3"/>
  <rect x="12.7" y="18.8" width="38.6" height="25" rx="10.6" fill="#0D1119" stroke="#3478F6" stroke-width="2.7"/>
  <rect x="20" y="29" width="7" height="4.8" rx="2.4" fill="#3478F6"/>
  <rect x="37" y="29" width="7" height="4.8" rx="2.4" fill="#3478F6"/>
  <path d="m24.3 37.2 7.7 4 7.7-4" stroke="#F7F9FC" stroke-width="2.3" stroke-linecap="round" stroke-linejoin="round"/>
  <path d="M14.7 27v9M49.3 27v9" stroke="#3478F6" stroke-width="3" stroke-linecap="round"/>
</svg>
