<svg xmlns="http://www.w3.org/2000/svg" viewBox="0 0 64 64" fill="none">
  <rect width="64" height="64" rx="18" fill="#071B1C"/>
  <rect x="1" y="1" width="62" height="62" rx="17" stroke="#F4FBF8" stroke-opacity=".12" stroke-width="2"/>
  <path d="M32 13v-4" stroke="#FF9276" stroke-width="3.5" stroke-linecap="round"/>
  <circle cx="32" cy="7" r="3.5" fill="#FF9276"/>
  <path d="M18 12h28c7 0 11 4.2 11 11v15c0 6.8-4 11-11 11H33L21 57v-8.5c-5.6-1.2-8-5.1-8-10.5V23c0-6.8 4-11 11-11Z" fill="#F4FBF8"/>
  <rect x="17" y="19" width="30" height="22" rx="11" fill="#32D3A2"/>
  <ellipse cx="26" cy="29" rx="2.6" ry="3" fill="#071B1C"/>
  <ellipse cx="38" cy="29" rx="2.6" ry="3" fill="#071B1C"/>
  <circle cx="27" cy="28" r=".8" fill="#F4FBF8"/>
  <circle cx="39" cy="28" r=".8" fill="#F4FBF8"/>
  <path d="M26 35c1.7 1.3 3.7 1.9 6 1.9s4.3-.6 6-1.9" stroke="#071B1C" stroke-width="2.2" stroke-linecap="round"/>
  <circle cx="16.5" cy="30" r="1.8" fill="#FF9276"/>
  <circle cx="47.5" cy="30" r="1.8" fill="#FF9276"/>
</svg>
