<svg width="720" height="440" viewBox="0 0 720 440" fill="none" xmlns="http://www.w3.org/2000/svg">
  <rect width="720" height="440" rx="24" fill="#DDEFE9"/>
  <rect x="45" y="34" width="630" height="372" rx="20" fill="#FFFDF8"/>
  <rect x="45" y="34" width="212" height="372" rx="20" fill="#08775C"/>
  <circle cx="81" cy="71" r="15" fill="#B9F36B"/><path d="M75 71H87M81 65V77" stroke="#071D17" stroke-width="2"/>
  <text x="108" y="77" fill="white" font-family="Arial" font-size="14" font-weight="700">SERVIS</text>
  <text x="76" y="135" fill="#B9F36B" font-family="Arial" font-size="10" font-weight="700" letter-spacing="1.1">ONLINE OBJEDNÁVKA</text>
  <text x="76" y="172" fill="white" font-family="Arial" font-size="24" font-weight="700">Termín bez</text><text x="76" y="199" fill="white" font-family="Arial" font-size="24" font-weight="700">telefonovania.</text>
  <text x="76" y="237" fill="#B8CDC5" font-family="Arial" font-size="11">Vyberte službu, lokalitu</text><text x="76" y="254" fill="#B8CDC5" font-family="Arial" font-size="11">a najbližší voľný čas.</text>
  <rect x="76" y="305" width="144" height="42" rx="21" fill="#B9F36B"/><text x="102" y="331" fill="#071D17" font-family="Arial" font-size="11" font-weight="700">Vybrať termín →</text>
  <text x="290" y="81" fill="#071D17" font-family="Arial" font-size="14" font-weight="700">Kedy vám vyhovuje návšteva?</text>
  <rect x="290" y="107" width="353" height="54" rx="12" fill="#F4F1E9"/>
  <circle cx="316" cy="134" r="12" fill="#D9EEE7"/><path d="M311 134L315 138L322 130" stroke="#08775C" stroke-width="2"/>
  <text x="338" y="130" fill="#071D17" font-family="Arial" font-size="10" font-weight="700">Diagnostika na mieste</text><text x="338" y="145" fill="#76827C" font-family="Arial" font-size="9">Bratislava a okolie</text>
  <text x="590" y="138" fill="#08775C" font-family="Arial" font-size="11" font-weight="700">60 min.</text>
  <text x="290" y="197" fill="#78817C" font-family="Arial" font-size="9" letter-spacing="1">DOSTUPNÉ TERMÍNY</text>
  <g font-family="Arial" font-size="10" text-anchor="middle">
    <rect x="290" y="216" width="105" height="83" rx="12" fill="#FFF" stroke="#C9CFCB"/><text x="342" y="241" fill="#78817C">PONDELOK</text><text x="342" y="269" fill="#071D17" font-size="16" font-weight="700">09:30</text>
    <rect x="405" y="216" width="105" height="83" rx="12" fill="#D9EEE7" stroke="#08775C" stroke-width="2"/><text x="457" y="241" fill="#08775C">STREDA</text><text x="457" y="269" fill="#071D17" font-size="16" font-weight="700">14:00</text>
    <rect x="520" y="216" width="105" height="83" rx="12" fill="#FFF" stroke="#C9CFCB"/><text x="572" y="241" fill="#78817C">PIATOK</text><text x="572" y="269" fill="#071D17" font-size="16" font-weight="700">11:30</text>
  </g>
  <rect x="290" y="329" width="335" height="44" rx="12" fill="#071D17"/><text x="315" y="355" fill="white" font-family="Arial" font-size="11" font-weight="700">Pokračovať ku kontaktným údajom</text><circle cx="601" cy="351" r="11" fill="#B9F36B"/><path d="M596 351H605M602 347L606 351L602 355" stroke="#071D17" stroke-width="1.5"/>
</svg>
